<svg xmlns="http://www.w3.org/2000/svg" xmlns:xlink="http://www.w3.org/1999/xlink" width="2558" zoomAndPan="magnify" viewBox="0 0 1918.5 1535.249993" height="2047" preserveAspectRatio="xMidYMid meet" version="1.0"><defs><clipPath id="76379e782b"><path d="M 0.21875 0 L 1917.78125 0 L 1917.78125 1534.5 L 0.21875 1534.5 Z M 0.21875 0 " clip-rule="nonzero"/></clipPath><clipPath id="b78c6d5512"><path d="M 0.21875 0 L 1917.78125 0 L 1917.78125 1533.75 L 0.21875 1533.75 Z M 0.21875 0 " clip-rule="nonzero"/></clipPath></defs><g clip-path="url(#76379e782b)"><path fill="#ffffff" d="M 0.21875 0 L 1917.78125 0 L 1917.78125 1534.5 L 0.21875 1534.5 Z M 0.21875 0 " fill-opacity="1" fill-rule="nonzero"/><path fill="#ffffff" d="M 0.21875 0 L 1917.78125 0 L 1917.78125 1534.5 L 0.21875 1534.5 Z M 0.21875 0 " fill-opacity="1" fill-rule="nonzero"/></g><path stroke-linecap="butt" transform="matrix(1.917554, 0, 0, 1.917554, 0.222902, 0.0000399805)" fill-opacity="1" fill="#339966" fill-rule="nonzero" stroke-linejoin="miter" d="M 477.500216 161.000151 L 523.499974 161.000151 L 524.50019 162.000367 L 537.500963 162.000367 L 538.499142 163.000583 L 547.499051 163.000583 L 548.499267 164.000799 L 555.50078 164.000799 L 556.500996 165.001015 L 574.500813 166.999411 L 620.500571 177.999751 L 659.500853 192.000741 C 725.967356 220.532365 781.800196 259.699689 826.999374 309.500676 C 846.799987 331.032824 864.46572 354.699854 880.000645 380.499727 L 887.000121 397.499327 L 888.000338 402.500408 L 888.000338 418.499793 L 881.999041 436.499609 L 856.999748 474.499675 C 840.599055 496.767217 822.434233 517.266555 802.499171 535.999728 C 760.166193 576.334311 709.499439 608.33308 650.500945 632.000109 L 607.499798 645.999061 L 557.499175 655.999185 L 540.499575 656.999402 L 539.499359 657.999618 L 527.500839 657.999618 L 526.500623 658.999834 L 474.499568 658.999834 L 473.499352 657.999618 L 462.499011 657.999618 L 461.500832 656.999402 L 437.499718 655.001006 L 394.500609 645.999061 C 369.032783 639.134034 345.365753 630.466172 323.499521 619.999552 C 267.300002 593.199463 219.13277 558.367088 178.99986 515.50039 C 158.932387 494.233064 140.93257 470.900119 125.00041 445.499518 L 115.000285 424.499053 L 112.999853 414.500965 L 112.999853 406.499236 L 117.000718 389.499635 L 137.000967 356.50065 C 154.399839 331.566545 173.900998 308.732689 195.500371 287.999084 C 233.832484 250.999235 278.834063 220.666814 330.498997 196.999784 C 354.166026 186.333528 379.833488 177.665667 407.499344 171.000275 L 432.500674 165.999195 L 453.499102 164.000799 L 454.499319 163.000583 L 463.499227 163.000583 L 464.499443 162.000367 L 476.5 162.000367 Z M 497.999555 222.999293 L 496.999339 223.999509 L 484.000603 223.999509 L 476.99909 225.999942 L 472.000046 225.999942 L 448.000969 233.999634 L 427.000504 246.000191 L 407.000255 261.999575 L 393.999482 278.000997 C 388.000222 286.000689 382.667094 295.332645 378.000097 306.000938 L 371.000621 328.999798 L 370.000405 342.000572 L 369.000189 343.000788 L 369.000189 360.000388 L 372.000838 366.999864 C 375.333533 371.666861 380.332577 374.667509 387.000006 375.999773 L 393.999482 375.999773 L 402.99939 372.000945 C 406.334123 369.332344 408.666603 365.999648 410.000903 362.000821 L 410.999082 342.000572 L 416.000163 323.000539 C 419.998991 313.000414 425.000072 304.666637 430.999332 297.999209 C 440.333324 286.000689 452.333881 277.000781 467.001002 270.999484 L 485.000819 266.00044 L 505.999247 265.000224 L 514.000976 260.999359 C 517.333672 258.332795 519.666152 254.666015 521.000452 249.999018 C 522.332716 241.999326 521.3325 236.334151 517.999804 232.999418 C 514.667108 226.334026 507.999679 222.999293 497.999555 222.999293 Z M 333.000556 258.000748 C 299.667486 275.332396 269.99916 296.000813 243.999651 319.99989 C 215.333578 345.999399 190.334285 375.999773 168.999735 410.001011 C 183.666856 434.666219 200.666457 457.000985 220.000574 476.999197 C 256.000208 514.999263 298.999317 546.333937 348.99994 570.999145 C 371.000621 581.667439 395.333782 589.999178 421.999423 596.000475 L 442.999888 599.999303 L 456.000661 600.999519 L 457.000878 601.999735 L 479.999738 602.999951 L 480.999954 604.000168 L 521.000452 604.000168 L 522.000669 602.999951 L 534.999404 602.999951 L 535.999621 601.999735 L 552.999221 600.999519 L 589.000892 594.000043 L 621.999877 583.999919 C 646.000991 575.334095 668.333719 564.665801 689.0001 551.999113 C 712.333045 537.334029 734.333726 521.00056 755.000107 503.000743 C 784.332312 475.666934 810.333858 445.000428 833.000671 410.99919 C 815.666986 382.999249 796.000821 357.999956 774.00014 335.999275 C 743.999766 304.666637 709.332396 278.667128 670.000067 258.000748 L 667.999635 259.000964 C 675.999327 270.999484 682.332671 285.000473 686.999668 300.999857 L 692.000749 322.000322 L 693.000965 335.999275 L 693.999144 336.999491 L 693.999144 373.99934 L 693.000965 374.999557 L 693.000965 382.999249 L 687.999884 408.000579 L 682.000624 426.000395 C 672.666631 448.667208 659.999943 468.667458 644.000558 485.999105 C 629.999569 500.666226 614.334269 513.332915 597.000584 523.999171 C 585.666159 530.6666 573.667639 535.999728 561.000951 540.000593 L 545.999745 543.99942 L 530.000361 547.000069 L 523.000885 547.000069 L 522.000669 548.000285 L 480.999954 548.000285 L 479.999738 547.000069 L 466.000786 545.999853 L 445.000321 541.000809 C 417.000379 532.332948 393.667435 519.334212 374.999449 502.000527 C 352.332636 483.332541 334.666904 459.999597 322.000215 431.999655 L 312.00009 401.999282 L 307.999226 379.000421 L 307.999226 368.00008 L 306.99901 366.999864 L 306.99901 344.001004 L 307.999226 343.000788 L 307.999226 333.000663 L 312.00009 309.999766 L 322.000215 279.999392 L 333.000556 259.999143 Z M 333.000556 258.000748 " stroke="#000000" stroke-width="1" stroke-opacity="1" stroke-miterlimit="4"/><g clip-path="url(#b78c6d5512)"><path stroke-linecap="butt" transform="matrix(1.917554, 0, 0, 1.917554, 0.222902, 0.0000399805)" fill-opacity="1" fill="#ffffff" fill-rule="nonzero" stroke-linejoin="miter" d="M -0.000128382 -0.0000208497 L 1000.000103 -0.0000208497 L 1000.000103 799.999757 L -0.000128382 799.999757 Z M 477.999306 161.000151 L 476.99909 162.000367 L 465.00057 162.000367 L 464.000354 163.000583 L 455.000445 163.000583 L 454.000229 164.000799 L 432.999764 165.999195 L 408.000471 171.000275 C 380.00053 177.665667 354.333068 186.333528 331.000123 196.999784 C 278.999068 221.000898 233.999526 251.333319 195.999461 287.999084 C 174.000816 308.667502 154.332615 331.666363 137.000967 356.99974 L 117.000718 390.000762 L 112.999853 407.000362 L 112.999853 415.000055 L 115.000285 425.000179 L 125.00041 446.000644 C 140.999794 471.334022 158.999611 494.666967 178.99986 515.999479 C 219.000358 558.666541 267.332596 593.333911 324.000647 619.999552 C 345.33316 630.665808 369.000189 639.333669 394.999698 645.999061 L 438.000845 655.001006 L 461.999921 656.999402 L 463.000137 657.999618 L 474.000478 657.999618 L 475.000694 658.999834 L 526.999712 658.999834 L 527.999928 657.999618 L 540.000485 657.999618 L 541.000701 656.999402 L 558.000302 655.999185 L 608.000925 645.999061 L 651.000034 632.000109 C 709.666481 607.998995 760.333235 576.000226 803.000298 535.999728 C 822.332378 517.33378 840.334232 496.999446 856.999748 475.000802 L 881.999041 437.000736 L 888.000338 419.000919 L 888.000338 402.999498 L 887.000121 398.000454 L 880.000645 381.000853 C 864.667393 354.999307 846.999623 331.334315 826.999374 309.999766 C 781.665748 259.999143 725.99995 220.666814 659.999943 192.000741 L 620.999661 177.999751 L 574.999903 166.999411 L 557.000086 165.001015 L 555.99987 164.000799 L 549.000394 164.000799 L 548.000177 163.000583 L 539.000269 163.000583 L 538.000053 162.000367 L 524.99928 162.000367 L 523.999064 161.000151 Z M 477.999306 161.000151 " stroke="#ffffff" stroke-width="1" stroke-opacity="1" stroke-miterlimit="4"/></g><path stroke-linecap="butt" transform="matrix(1.917554, 0, 0, 1.917554, 0.222902, 0.0000399805)" fill-opacity="1" fill="#ffffff" fill-rule="nonzero" stroke-linejoin="miter" d="M 497.500465 222.999293 C 507.565777 222.934106 514.400248 226.09976 517.999804 232.500328 C 521.200088 235.967473 522.200304 241.632648 521.000452 249.499929 C 519.600965 254.433785 517.099406 258.267608 513.49985 260.999359 L 505.500157 265.000224 L 484.499692 266.00044 L 466.499875 270.999484 C 452.03239 277.200416 440.200913 286.033283 430.999332 297.500119 C 424.800436 304.634044 419.799355 312.965783 416.000163 322.499412 L 410.999082 341.499445 L 410.000903 361.499694 C 408.534191 366.034279 406.032632 369.534017 402.500301 372.000945 L 393.500392 375.999773 L 386.500916 375.999773 C 379.833488 374.667509 374.999449 371.499818 372.000838 366.500775 L 369.000189 359.499262 L 369.000189 342.499661 L 370.000405 341.499445 L 371.000621 328.500709 L 378.000097 305.499811 C 382.333009 295.16764 387.666138 285.833647 393.999482 277.49987 L 407.000255 261.999575 L 426.499377 246.000191 L 447.499843 233.999634 L 471.500956 225.999942 L 476.5 225.999942 L 483.499476 223.999509 L 496.500249 223.999509 Z M 497.500465 222.999293 " stroke="#ffffff" stroke-width="1" stroke-opacity="1" stroke-miterlimit="4"/><path stroke-linecap="butt" transform="matrix(1.917554, 0, 0, 1.917554, 0.222902, 0.0000399805)" fill-opacity="1" fill="#ffffff" fill-rule="nonzero" stroke-linejoin="miter" d="M 332.499429 258.000748 L 333.000556 259.500053 L 322.000215 279.500302 L 312.00009 309.500676 L 307.999226 332.499537 L 307.999226 342.499661 L 306.99901 343.499877 L 306.99901 366.500775 L 307.999226 367.500991 L 307.999226 378.499295 L 312.00009 401.500192 L 322.000215 431.500566 C 334.799315 459.700143 352.300042 483.20013 374.500359 502.000527 C 393.500392 519.334212 416.833337 532.332948 444.499194 541.000809 L 465.499659 545.999853 L 479.500649 547.000069 L 480.500865 548.000285 L 521.499542 548.000285 L 522.499758 547.000069 L 529.499234 547.000069 L 545.500656 543.99942 L 560.499824 540.000593 C 573.565784 535.732868 585.566341 530.39974 596.499457 523.999171 C 614.499274 513.332915 630.333653 500.499184 644.000558 485.500016 C 659.932718 468.767275 672.599407 448.767026 682.000624 425.499269 L 687.999884 407.499452 L 693.000965 382.500159 L 693.000965 374.500467 L 693.999144 373.500251 L 693.999144 336.500401 L 693.000965 335.500185 L 692.000749 321.499196 L 686.999668 300.500768 C 682.46712 284.698982 676.133776 270.70003 667.999635 258.499837 L 669.500978 258.000748 C 709.367027 278.79954 744.199402 304.634044 774.00014 335.500185 C 796.066009 358.099774 815.73421 383.099067 833.000671 410.5001 C 810.665905 445.16747 784.499354 476.001018 754.501018 503.000743 C 734.433544 521.26742 712.432863 537.600889 688.501011 551.999113 C 668.099453 564.600614 645.766724 575.26687 621.500787 583.999919 L 588.499765 594.000043 L 552.500132 600.999519 L 535.500531 601.999735 L 534.500315 602.999951 L 521.499542 602.999951 L 520.499326 604.000168 L 480.500865 604.000168 L 479.500649 602.999951 L 456.499751 601.999735 L 455.499535 600.999519 L 442.500799 599.999303 L 421.500334 596.000475 C 395.034329 589.799543 370.699131 581.465766 348.50085 570.999145 C 298.500228 546.665984 255.666123 515.166305 220.000574 476.500108 C 200.599233 456.567083 183.599632 434.234354 168.999735 409.499884 C 190.199837 376.032366 215.034124 346.199035 243.500561 319.99989 C 269.50007 295.666729 299.16636 275.000348 332.499429 258.000748 Z M 332.499429 258.000748 " stroke="#ffffff" stroke-width="1" stroke-opacity="1" stroke-miterlimit="4"/></svg>